<mxfile host="app.diagrams.net" modified="2022-04-12T19:24:02.604Z" agent="5.0 (Windows NT 10.0; Win64; x64) AppleWebKit/537.36 (KHTML, like Gecko) Chrome/100.0.4896.75 Safari/537.36" etag="DRBtU9QzDwJUp11Rlu08" version="17.4.3" type="github">
  <diagram name="Page-1" id="e7e014a7-5840-1c2e-5031-d8a46d1fe8dd">
    <mxGraphModel dx="2062" dy="1122" grid="1" gridSize="10" guides="1" tooltips="1" connect="1" arrows="1" fold="1" page="1" pageScale="1" pageWidth="1169" pageHeight="826" background="none" math="0" shadow="0">
      <root>
        <mxCell id="0" />
        <mxCell id="1" parent="0" />
        <mxCell id="SwUteoNOMUvcc4gItRgM-42" value="Frontend (REACT)" style="swimlane;" parent="1" vertex="1">
          <mxGeometry x="340" y="280" width="210" height="410" as="geometry" />
        </mxCell>
        <mxCell id="SwUteoNOMUvcc4gItRgM-43" value="Backend (EXPRESS)" style="swimlane;" parent="1" vertex="1">
          <mxGeometry x="550" y="280" width="390" height="410" as="geometry" />
        </mxCell>
        <mxCell id="SwUteoNOMUvcc4gItRgM-44" value="AWS Elastic Beanstalk" style="swimlane;" parent="1" vertex="1">
          <mxGeometry x="250" y="170" width="740" height="670" as="geometry" />
        </mxCell>
        <mxCell id="SwUteoNOMUvcc4gItRgM-46" value="DB&lt;br&gt;POSTGRES&lt;br&gt;&lt;br&gt;-restaurants&lt;br&gt;&lt;br&gt;-reviews" style="shape=cylinder3;whiteSpace=wrap;html=1;boundedLbl=1;backgroundOutline=1;size=15;" parent="SwUteoNOMUvcc4gItRgM-44" vertex="1">
          <mxGeometry x="560" y="250" width="100" height="170" as="geometry" />
        </mxCell>
        <mxCell id="SwUteoNOMUvcc4gItRgM-47" value="Reataurants" style="text;html=1;strokeColor=none;fillColor=none;align=center;verticalAlign=middle;whiteSpace=wrap;rounded=0;" parent="SwUteoNOMUvcc4gItRgM-44" vertex="1">
          <mxGeometry x="170" y="190" width="90" height="30" as="geometry" />
        </mxCell>
        <mxCell id="SwUteoNOMUvcc4gItRgM-49" value="&lt;span style=&quot;color: rgb(0 , 0 , 0) ; font-family: &amp;#34;helvetica&amp;#34; ; font-size: 12px ; font-style: normal ; font-weight: 400 ; letter-spacing: normal ; text-align: center ; text-indent: 0px ; text-transform: none ; word-spacing: 0px ; background-color: rgb(248 , 249 , 250) ; display: inline ; float: none&quot;&gt;/restaurants (CRUD)&lt;/span&gt;" style="text;whiteSpace=wrap;html=1;" parent="SwUteoNOMUvcc4gItRgM-44" vertex="1">
          <mxGeometry x="370" y="250" width="90" height="30" as="geometry" />
        </mxCell>
        <mxCell id="SwUteoNOMUvcc4gItRgM-51" value="API" style="swimlane;" parent="SwUteoNOMUvcc4gItRgM-44" vertex="1">
          <mxGeometry x="330" y="203" width="200" height="200" as="geometry" />
        </mxCell>
        <mxCell id="SwUteoNOMUvcc4gItRgM-48" value="/api/v1" style="text;html=1;strokeColor=none;fillColor=none;align=center;verticalAlign=middle;whiteSpace=wrap;rounded=0;" parent="SwUteoNOMUvcc4gItRgM-51" vertex="1">
          <mxGeometry x="-20" y="17" width="100" height="30" as="geometry" />
        </mxCell>
        <mxCell id="SwUteoNOMUvcc4gItRgM-53" value="&lt;span style=&quot;color: rgb(0 , 0 , 0) ; font-family: &amp;#34;helvetica&amp;#34; ; font-size: 12px ; font-style: normal ; font-weight: 400 ; letter-spacing: normal ; text-align: center ; text-indent: 0px ; text-transform: none ; word-spacing: 0px ; background-color: rgb(248 , 249 , 250) ; display: inline ; float: none&quot;&gt;/restaurants/:id/addReview (Create)&lt;/span&gt;" style="text;whiteSpace=wrap;html=1;" parent="SwUteoNOMUvcc4gItRgM-51" vertex="1">
          <mxGeometry x="40" y="100" width="140" height="30" as="geometry" />
        </mxCell>
        <mxCell id="SwUteoNOMUvcc4gItRgM-62" style="rounded=0;orthogonalLoop=1;jettySize=auto;html=1;entryX=0.005;entryY=0.648;entryDx=0;entryDy=0;entryPerimeter=0;" parent="SwUteoNOMUvcc4gItRgM-44" target="SwUteoNOMUvcc4gItRgM-53" edge="1">
          <mxGeometry relative="1" as="geometry">
            <mxPoint x="260" y="345" as="sourcePoint" />
          </mxGeometry>
        </mxCell>
        <mxCell id="SwUteoNOMUvcc4gItRgM-52" value="Reviews" style="text;html=1;strokeColor=none;fillColor=none;align=center;verticalAlign=middle;whiteSpace=wrap;rounded=0;" parent="SwUteoNOMUvcc4gItRgM-44" vertex="1">
          <mxGeometry x="170" y="330" width="90" height="30" as="geometry" />
        </mxCell>
        <mxCell id="SwUteoNOMUvcc4gItRgM-54" value="" style="endArrow=none;dashed=1;html=1;rounded=0;entryX=0;entryY=0;entryDx=0;entryDy=31.75;entryPerimeter=0;" parent="SwUteoNOMUvcc4gItRgM-44" source="SwUteoNOMUvcc4gItRgM-49" target="SwUteoNOMUvcc4gItRgM-46" edge="1">
          <mxGeometry width="50" height="50" relative="1" as="geometry">
            <mxPoint x="440" y="310" as="sourcePoint" />
            <mxPoint x="490" y="260" as="targetPoint" />
          </mxGeometry>
        </mxCell>
        <mxCell id="SwUteoNOMUvcc4gItRgM-56" value="" style="endArrow=none;dashed=1;html=1;rounded=0;entryX=0;entryY=0;entryDx=0;entryDy=65.25;entryPerimeter=0;exitX=1.043;exitY=0.5;exitDx=0;exitDy=0;exitPerimeter=0;" parent="SwUteoNOMUvcc4gItRgM-44" source="SwUteoNOMUvcc4gItRgM-53" target="SwUteoNOMUvcc4gItRgM-46" edge="1">
          <mxGeometry width="50" height="50" relative="1" as="geometry">
            <mxPoint x="425" y="275" as="sourcePoint" />
            <mxPoint x="570" y="291.75" as="targetPoint" />
          </mxGeometry>
        </mxCell>
        <mxCell id="AeGMSe5kOOd8sqKcwyJ6-1" value="Actor" style="shape=umlActor;verticalLabelPosition=bottom;verticalAlign=top;html=1;outlineConnect=0;" vertex="1" parent="SwUteoNOMUvcc4gItRgM-44">
          <mxGeometry x="100" y="183" width="30" height="60" as="geometry" />
        </mxCell>
        <mxCell id="SwUteoNOMUvcc4gItRgM-58" style="rounded=0;orthogonalLoop=1;jettySize=auto;html=1;entryX=-0.042;entryY=0.45;entryDx=0;entryDy=0;entryPerimeter=0;" parent="1" target="SwUteoNOMUvcc4gItRgM-49" edge="1">
          <mxGeometry relative="1" as="geometry">
            <mxPoint x="590" y="375" as="targetPoint" />
            <mxPoint x="500" y="375" as="sourcePoint" />
          </mxGeometry>
        </mxCell>
      </root>
    </mxGraphModel>
  </diagram>
</mxfile>
